<mxfile host="app.diagrams.net" agent="Mozilla/5.0 (Macintosh; Intel Mac OS X 10_15_7) AppleWebKit/537.36 (KHTML, like Gecko) Chrome/139.0.0.0 Safari/537.36" version="28.2.0" pages="2">
  <diagram id="FZimzOWbiY0pmrnXrLaN" name="DFD контекстная">
    <mxGraphModel grid="1" page="1" gridSize="10" guides="1" tooltips="1" connect="1" arrows="1" fold="1" pageScale="1" pageWidth="827" pageHeight="1169" math="0" shadow="0">
      <root>
        <mxCell id="0" />
        <mxCell id="1" parent="0" />
        <mxCell id="komNeLyyzliTDDAAMzvB-3" value="Врач" style="html=1;dashed=0;whitespace=wrap;" vertex="1" parent="1">
          <mxGeometry x="40" y="-730" width="100" height="50" as="geometry" />
        </mxCell>
        <mxCell id="komNeLyyzliTDDAAMzvB-4" value="Лаборатория" style="html=1;dashed=0;whitespace=wrap;" vertex="1" parent="1">
          <mxGeometry x="840" y="-650" width="100" height="50" as="geometry" />
        </mxCell>
        <mxCell id="komNeLyyzliTDDAAMzvB-5" value="Пациент" style="html=1;dashed=0;whitespace=wrap;" vertex="1" parent="1">
          <mxGeometry x="355" y="-410" width="285" height="50" as="geometry" />
        </mxCell>
        <mxCell id="rhUK0AfXt017CsrgmApv-1" value="0" style="swimlane;childLayout=stackLayout;horizontal=1;startSize=30;horizontalStack=0;rounded=1;fontSize=14;fontStyle=0;strokeWidth=1;resizeParent=0;resizeLast=1;shadow=0;dashed=0;align=center;fillColor=#FFFFFF;" vertex="1" parent="1">
          <mxGeometry x="330" y="-780" width="270" height="160" as="geometry" />
        </mxCell>
        <mxCell id="rhUK0AfXt017CsrgmApv-2" value="Приложение &quot;Вита&quot;" style="align=center;strokeColor=none;fillColor=none;spacingLeft=4;fontSize=12;verticalAlign=middle;resizable=0;rotatable=0;part=1;" vertex="1" parent="rhUK0AfXt017CsrgmApv-1">
          <mxGeometry y="30" width="270" height="130" as="geometry" />
        </mxCell>
        <mxCell id="yv6Yuxn3ockM3c1HEgXa-6" value="&lt;span style=&quot;font-family: quote-cjk-patch, Inter, system-ui, -apple-system, &amp;quot;system-ui&amp;quot;, &amp;quot;Segoe UI&amp;quot;, Roboto, &amp;quot;Noto Sans&amp;quot;, Ubuntu, Cantarell, &amp;quot;Helvetica Neue&amp;quot;, Oxygen, &amp;quot;Open Sans&amp;quot;, sans-serif; font-size: 16.002px; text-align: left; text-wrap-mode: wrap;&quot;&gt;&lt;font style=&quot;color: rgb(27, 27, 27);&quot;&gt;Назначение&lt;/font&gt;&lt;/span&gt;&lt;div&gt;&lt;span style=&quot;font-family: quote-cjk-patch, Inter, system-ui, -apple-system, &amp;quot;system-ui&amp;quot;, &amp;quot;Segoe UI&amp;quot;, Roboto, &amp;quot;Noto Sans&amp;quot;, Ubuntu, Cantarell, &amp;quot;Helvetica Neue&amp;quot;, Oxygen, &amp;quot;Open Sans&amp;quot;, sans-serif; font-size: 16.002px; text-align: left; text-wrap-mode: wrap;&quot;&gt;&lt;font style=&quot;color: rgb(27, 27, 27);&quot;&gt;&amp;nbsp;на обследование&lt;/font&gt;&lt;/span&gt;&lt;/div&gt;" style="text;html=1;align=center;verticalAlign=middle;resizable=0;points=[];autosize=1;strokeColor=none;fillColor=none;" vertex="1" parent="1">
          <mxGeometry x="130" y="-780" width="160" height="50" as="geometry" />
        </mxCell>
        <mxCell id="yv6Yuxn3ockM3c1HEgXa-7" value="" style="endArrow=classic;html=1;rounded=0;entryX=-0.001;entryY=0.633;entryDx=0;entryDy=0;entryPerimeter=0;exitX=1;exitY=0.75;exitDx=0;exitDy=0;" edge="1" parent="1" source="komNeLyyzliTDDAAMzvB-3" target="rhUK0AfXt017CsrgmApv-2">
          <mxGeometry width="50" height="50" relative="1" as="geometry">
            <mxPoint x="200" y="-560" as="sourcePoint" />
            <mxPoint x="210" y="-641" as="targetPoint" />
          </mxGeometry>
        </mxCell>
        <mxCell id="yv6Yuxn3ockM3c1HEgXa-14" value="&lt;span style=&quot;font-family: quote-cjk-patch, Inter, system-ui, -apple-system, &amp;quot;system-ui&amp;quot;, &amp;quot;Segoe UI&amp;quot;, Roboto, &amp;quot;Noto Sans&amp;quot;, Ubuntu, Cantarell, &amp;quot;Helvetica Neue&amp;quot;, Oxygen, &amp;quot;Open Sans&amp;quot;, sans-serif; font-size: 16.002px; text-align: left; text-wrap-mode: wrap;&quot;&gt;&lt;font style=&quot;color: rgb(27, 27, 27);&quot;&gt;статус анализов&lt;/font&gt;&lt;/span&gt;" style="text;html=1;align=center;verticalAlign=middle;resizable=0;points=[];autosize=1;strokeColor=none;fillColor=none;" vertex="1" parent="1">
          <mxGeometry x="690" y="-700" width="150" height="30" as="geometry" />
        </mxCell>
        <mxCell id="yv6Yuxn3ockM3c1HEgXa-15" value="" style="endArrow=classic;html=1;rounded=0;entryX=1;entryY=0.75;entryDx=0;entryDy=0;exitX=0;exitY=0.75;exitDx=0;exitDy=0;" edge="1" parent="1" source="komNeLyyzliTDDAAMzvB-4" target="rhUK0AfXt017CsrgmApv-2">
          <mxGeometry width="50" height="50" relative="1" as="geometry">
            <mxPoint x="600" y="-510" as="sourcePoint" />
            <mxPoint x="650" y="-560" as="targetPoint" />
          </mxGeometry>
        </mxCell>
        <mxCell id="yv6Yuxn3ockM3c1HEgXa-16" value="&lt;span style=&quot;font-family: quote-cjk-patch, Inter, system-ui, -apple-system, &amp;quot;system-ui&amp;quot;, &amp;quot;Segoe UI&amp;quot;, Roboto, &amp;quot;Noto Sans&amp;quot;, Ubuntu, Cantarell, &amp;quot;Helvetica Neue&amp;quot;, Oxygen, &amp;quot;Open Sans&amp;quot;, sans-serif; font-size: 16.002px; text-align: left; text-wrap-mode: wrap;&quot;&gt;&lt;font style=&quot;color: rgb(27, 27, 27);&quot;&gt;результаты анализов&lt;/font&gt;&lt;/span&gt;" style="text;html=1;align=center;verticalAlign=middle;resizable=0;points=[];autosize=1;strokeColor=none;fillColor=none;" vertex="1" parent="1">
          <mxGeometry x="630" y="-614" width="180" height="30" as="geometry" />
        </mxCell>
        <mxCell id="C4u1MtwujmKZDyvQ94rO-1" value="" style="endArrow=classic;html=1;rounded=0;entryX=1;entryY=0.5;entryDx=0;entryDy=0;exitX=0;exitY=0.25;exitDx=0;exitDy=0;" edge="1" parent="1" source="komNeLyyzliTDDAAMzvB-4" target="rhUK0AfXt017CsrgmApv-2">
          <mxGeometry width="50" height="50" relative="1" as="geometry">
            <mxPoint x="700" y="-620" as="sourcePoint" />
            <mxPoint x="550" y="-608" as="targetPoint" />
          </mxGeometry>
        </mxCell>
        <mxCell id="C4u1MtwujmKZDyvQ94rO-2" value="" style="endArrow=classic;html=1;rounded=0;entryX=-0.004;entryY=0.432;entryDx=0;entryDy=0;entryPerimeter=0;exitX=1;exitY=0.5;exitDx=0;exitDy=0;" edge="1" parent="1" source="komNeLyyzliTDDAAMzvB-3" target="rhUK0AfXt017CsrgmApv-2">
          <mxGeometry width="50" height="50" relative="1" as="geometry">
            <mxPoint x="170" y="-660" as="sourcePoint" />
            <mxPoint x="330" y="-737" as="targetPoint" />
          </mxGeometry>
        </mxCell>
        <mxCell id="C4u1MtwujmKZDyvQ94rO-4" value="&lt;span style=&quot;font-family: quote-cjk-patch, Inter, system-ui, -apple-system, &amp;quot;system-ui&amp;quot;, &amp;quot;Segoe UI&amp;quot;, Roboto, &amp;quot;Noto Sans&amp;quot;, Ubuntu, Cantarell, &amp;quot;Helvetica Neue&amp;quot;, Oxygen, &amp;quot;Open Sans&amp;quot;, sans-serif; font-size: 16.002px; text-align: left; text-wrap-mode: wrap;&quot;&gt;&lt;font style=&quot;color: rgb(27, 27, 27);&quot;&gt;Назначение&lt;/font&gt;&lt;/span&gt;&lt;div&gt;&lt;span style=&quot;font-family: quote-cjk-patch, Inter, system-ui, -apple-system, &amp;quot;system-ui&amp;quot;, &amp;quot;Segoe UI&amp;quot;, Roboto, &amp;quot;Noto Sans&amp;quot;, Ubuntu, Cantarell, &amp;quot;Helvetica Neue&amp;quot;, Oxygen, &amp;quot;Open Sans&amp;quot;, sans-serif; font-size: 16.002px; text-align: left; text-wrap-mode: wrap;&quot;&gt;&lt;font style=&quot;color: rgb(27, 27, 27);&quot;&gt;&amp;nbsp;на медикаментозное&lt;/font&gt;&lt;/span&gt;&lt;/div&gt;&lt;div&gt;&lt;span style=&quot;font-family: quote-cjk-patch, Inter, system-ui, -apple-system, &amp;quot;system-ui&amp;quot;, &amp;quot;Segoe UI&amp;quot;, Roboto, &amp;quot;Noto Sans&amp;quot;, Ubuntu, Cantarell, &amp;quot;Helvetica Neue&amp;quot;, Oxygen, &amp;quot;Open Sans&amp;quot;, sans-serif; font-size: 16.002px; text-align: left; text-wrap-mode: wrap;&quot;&gt;&lt;font style=&quot;color: rgb(27, 27, 27);&quot;&gt;&amp;nbsp;лечение&lt;/font&gt;&lt;/span&gt;&lt;/div&gt;" style="text;html=1;align=center;verticalAlign=middle;resizable=0;points=[];autosize=1;strokeColor=none;fillColor=none;" vertex="1" parent="1">
          <mxGeometry x="115" y="-670" width="190" height="70" as="geometry" />
        </mxCell>
        <mxCell id="C4u1MtwujmKZDyvQ94rO-5" style="edgeStyle=orthogonalEdgeStyle;rounded=0;orthogonalLoop=1;jettySize=auto;html=1;" edge="1" parent="1">
          <mxGeometry relative="1" as="geometry">
            <mxPoint x="370" y="-620" as="sourcePoint" />
            <mxPoint x="370" y="-410" as="targetPoint" />
          </mxGeometry>
        </mxCell>
        <mxCell id="C4u1MtwujmKZDyvQ94rO-6" value="&lt;span style=&quot;font-family: quote-cjk-patch, Inter, system-ui, -apple-system, &amp;quot;system-ui&amp;quot;, &amp;quot;Segoe UI&amp;quot;, Roboto, &amp;quot;Noto Sans&amp;quot;, Ubuntu, Cantarell, &amp;quot;Helvetica Neue&amp;quot;, Oxygen, &amp;quot;Open Sans&amp;quot;, sans-serif; font-size: 16.002px; text-align: left; text-wrap-mode: wrap;&quot;&gt;&lt;font style=&quot;color: rgb(27, 27, 27);&quot;&gt;Назначение&lt;/font&gt;&lt;/span&gt;&lt;div&gt;&lt;span style=&quot;font-family: quote-cjk-patch, Inter, system-ui, -apple-system, &amp;quot;system-ui&amp;quot;, &amp;quot;Segoe UI&amp;quot;, Roboto, &amp;quot;Noto Sans&amp;quot;, Ubuntu, Cantarell, &amp;quot;Helvetica Neue&amp;quot;, Oxygen, &amp;quot;Open Sans&amp;quot;, sans-serif; font-size: 16.002px; text-align: left; text-wrap-mode: wrap;&quot;&gt;&lt;font style=&quot;color: rgb(27, 27, 27);&quot;&gt;&amp;nbsp;на медикаментозное&lt;/font&gt;&lt;/span&gt;&lt;/div&gt;&lt;div&gt;&lt;span style=&quot;font-family: quote-cjk-patch, Inter, system-ui, -apple-system, &amp;quot;system-ui&amp;quot;, &amp;quot;Segoe UI&amp;quot;, Roboto, &amp;quot;Noto Sans&amp;quot;, Ubuntu, Cantarell, &amp;quot;Helvetica Neue&amp;quot;, Oxygen, &amp;quot;Open Sans&amp;quot;, sans-serif; font-size: 16.002px; text-align: left; text-wrap-mode: wrap;&quot;&gt;&lt;font style=&quot;color: rgb(27, 27, 27);&quot;&gt;&amp;nbsp;лечение&lt;/font&gt;&lt;/span&gt;&lt;/div&gt;" style="text;html=1;align=center;verticalAlign=middle;resizable=0;points=[];autosize=1;strokeColor=none;fillColor=none;rotation=-90;" vertex="1" parent="1">
          <mxGeometry x="224" y="-560" width="190" height="70" as="geometry" />
        </mxCell>
        <mxCell id="C4u1MtwujmKZDyvQ94rO-7" value="&lt;span style=&quot;font-family: quote-cjk-patch, Inter, system-ui, -apple-system, &amp;quot;system-ui&amp;quot;, &amp;quot;Segoe UI&amp;quot;, Roboto, &amp;quot;Noto Sans&amp;quot;, Ubuntu, Cantarell, &amp;quot;Helvetica Neue&amp;quot;, Oxygen, &amp;quot;Open Sans&amp;quot;, sans-serif; font-size: 16.002px; text-align: left; text-wrap-mode: wrap;&quot;&gt;&lt;font style=&quot;color: rgb(27, 27, 27);&quot;&gt;Назначение&lt;/font&gt;&lt;/span&gt;&lt;div&gt;&lt;span style=&quot;font-family: quote-cjk-patch, Inter, system-ui, -apple-system, &amp;quot;system-ui&amp;quot;, &amp;quot;Segoe UI&amp;quot;, Roboto, &amp;quot;Noto Sans&amp;quot;, Ubuntu, Cantarell, &amp;quot;Helvetica Neue&amp;quot;, Oxygen, &amp;quot;Open Sans&amp;quot;, sans-serif; font-size: 16.002px; text-align: left; text-wrap-mode: wrap;&quot;&gt;&lt;font style=&quot;color: rgb(27, 27, 27);&quot;&gt;&amp;nbsp;на обследование&lt;/font&gt;&lt;/span&gt;&lt;/div&gt;" style="text;html=1;align=center;verticalAlign=middle;resizable=0;points=[];autosize=1;strokeColor=none;fillColor=none;rotation=-90;" vertex="1" parent="1">
          <mxGeometry x="325" y="-550" width="160" height="50" as="geometry" />
        </mxCell>
        <mxCell id="C4u1MtwujmKZDyvQ94rO-8" style="edgeStyle=orthogonalEdgeStyle;rounded=0;orthogonalLoop=1;jettySize=auto;html=1;" edge="1" parent="1" source="rhUK0AfXt017CsrgmApv-2">
          <mxGeometry relative="1" as="geometry">
            <mxPoint x="442" y="-410" as="targetPoint" />
            <Array as="points">
              <mxPoint x="440" y="-540" />
              <mxPoint x="442" y="-540" />
            </Array>
          </mxGeometry>
        </mxCell>
        <mxCell id="C4u1MtwujmKZDyvQ94rO-9" style="edgeStyle=orthogonalEdgeStyle;rounded=0;orthogonalLoop=1;jettySize=auto;html=1;entryX=0.439;entryY=0;entryDx=0;entryDy=0;entryPerimeter=0;" edge="1" parent="1" source="rhUK0AfXt017CsrgmApv-2" target="komNeLyyzliTDDAAMzvB-5">
          <mxGeometry relative="1" as="geometry" />
        </mxCell>
        <mxCell id="C4u1MtwujmKZDyvQ94rO-10" style="edgeStyle=orthogonalEdgeStyle;rounded=0;orthogonalLoop=1;jettySize=auto;html=1;exitX=0.75;exitY=1;exitDx=0;exitDy=0;entryX=0.684;entryY=0;entryDx=0;entryDy=0;entryPerimeter=0;" edge="1" parent="1" source="rhUK0AfXt017CsrgmApv-2" target="komNeLyyzliTDDAAMzvB-5">
          <mxGeometry relative="1" as="geometry">
            <mxPoint x="550" y="-420" as="targetPoint" />
          </mxGeometry>
        </mxCell>
        <mxCell id="C4u1MtwujmKZDyvQ94rO-11" value="&lt;span style=&quot;font-family: quote-cjk-patch, Inter, system-ui, -apple-system, &amp;quot;system-ui&amp;quot;, &amp;quot;Segoe UI&amp;quot;, Roboto, &amp;quot;Noto Sans&amp;quot;, Ubuntu, Cantarell, &amp;quot;Helvetica Neue&amp;quot;, Oxygen, &amp;quot;Open Sans&amp;quot;, sans-serif; font-size: 16.002px; text-align: left; text-wrap-mode: wrap;&quot;&gt;&lt;font style=&quot;color: rgb(27, 27, 27);&quot;&gt;статус анализов&lt;/font&gt;&lt;/span&gt;" style="text;html=1;align=center;verticalAlign=middle;resizable=0;points=[];autosize=1;strokeColor=none;fillColor=none;rotation=-90;" vertex="1" parent="1">
          <mxGeometry x="422.5" y="-560" width="150" height="30" as="geometry" />
        </mxCell>
        <mxCell id="C4u1MtwujmKZDyvQ94rO-12" value="&lt;span style=&quot;font-family: quote-cjk-patch, Inter, system-ui, -apple-system, &amp;quot;system-ui&amp;quot;, &amp;quot;Segoe UI&amp;quot;, Roboto, &amp;quot;Noto Sans&amp;quot;, Ubuntu, Cantarell, &amp;quot;Helvetica Neue&amp;quot;, Oxygen, &amp;quot;Open Sans&amp;quot;, sans-serif; font-size: 16.002px; text-align: left; text-wrap-mode: wrap;&quot;&gt;&lt;font style=&quot;color: rgb(27, 27, 27);&quot;&gt;результаты анализов&lt;/font&gt;&lt;/span&gt;" style="text;html=1;align=center;verticalAlign=middle;resizable=0;points=[];autosize=1;strokeColor=none;fillColor=none;rotation=-90;" vertex="1" parent="1">
          <mxGeometry x="485" y="-520" width="180" height="30" as="geometry" />
        </mxCell>
        <mxCell id="C4u1MtwujmKZDyvQ94rO-13" value="" style="endArrow=classic;html=1;rounded=0;entryX=0.958;entryY=-0.011;entryDx=0;entryDy=0;entryPerimeter=0;exitX=0.982;exitY=1.004;exitDx=0;exitDy=0;exitPerimeter=0;" edge="1" parent="1" source="rhUK0AfXt017CsrgmApv-2" target="komNeLyyzliTDDAAMzvB-5">
          <mxGeometry width="50" height="50" relative="1" as="geometry">
            <mxPoint x="520" y="-530" as="sourcePoint" />
            <mxPoint x="570" y="-580" as="targetPoint" />
          </mxGeometry>
        </mxCell>
        <mxCell id="C4u1MtwujmKZDyvQ94rO-14" value="&lt;span style=&quot;font-family: quote-cjk-patch, Inter, system-ui, -apple-system, &amp;quot;system-ui&amp;quot;, &amp;quot;Segoe UI&amp;quot;, Roboto, &amp;quot;Noto Sans&amp;quot;, Ubuntu, Cantarell, &amp;quot;Helvetica Neue&amp;quot;, Oxygen, &amp;quot;Open Sans&amp;quot;, sans-serif; font-size: 16.002px; text-align: left; text-wrap-mode: wrap;&quot;&gt;&lt;font style=&quot;color: rgb(27, 27, 27);&quot;&gt;расписание&amp;nbsp;&lt;/font&gt;&lt;/span&gt;&lt;div&gt;&lt;span style=&quot;font-family: quote-cjk-patch, Inter, system-ui, -apple-system, &amp;quot;system-ui&amp;quot;, &amp;quot;Segoe UI&amp;quot;, Roboto, &amp;quot;Noto Sans&amp;quot;, Ubuntu, Cantarell, &amp;quot;Helvetica Neue&amp;quot;, Oxygen, &amp;quot;Open Sans&amp;quot;, sans-serif; font-size: 16.002px; text-align: left; text-wrap-mode: wrap;&quot;&gt;&lt;font style=&quot;color: rgb(27, 27, 27);&quot;&gt;процедурного&amp;nbsp;&lt;/font&gt;&lt;/span&gt;&lt;/div&gt;&lt;div&gt;&lt;span style=&quot;font-family: quote-cjk-patch, Inter, system-ui, -apple-system, &amp;quot;system-ui&amp;quot;, &amp;quot;Segoe UI&amp;quot;, Roboto, &amp;quot;Noto Sans&amp;quot;, Ubuntu, Cantarell, &amp;quot;Helvetica Neue&amp;quot;, Oxygen, &amp;quot;Open Sans&amp;quot;, sans-serif; font-size: 16.002px; text-align: left; text-wrap-mode: wrap;&quot;&gt;&lt;font style=&quot;color: rgb(27, 27, 27);&quot;&gt;кабинета&lt;/font&gt;&lt;/span&gt;&lt;/div&gt;" style="text;html=1;align=center;verticalAlign=middle;resizable=0;points=[];autosize=1;strokeColor=none;fillColor=none;rotation=75;" vertex="1" parent="1">
          <mxGeometry x="590" y="-540" width="140" height="70" as="geometry" />
        </mxCell>
      </root>
    </mxGraphModel>
  </diagram>
  <diagram id="5hfhekeH1kYWlCb4wukP" name="DFD логические">
    <mxGraphModel grid="1" page="1" gridSize="10" guides="1" tooltips="1" connect="1" arrows="1" fold="1" pageScale="1" pageWidth="827" pageHeight="1169" math="0" shadow="0">
      <root>
        <mxCell id="0" />
        <mxCell id="1" parent="0" />
        <mxCell id="a9Sl7O8uez9xCAdCzFx1-50" value="Пациент" style="html=1;fontSize=11;" vertex="1" parent="1">
          <mxGeometry x="300" y="-30" width="330" height="40" as="geometry" />
        </mxCell>
        <mxCell id="a9Sl7O8uez9xCAdCzFx1-51" value="Врач" style="html=1;fontSize=11;" vertex="1" parent="1">
          <mxGeometry y="-660" width="130" height="50" as="geometry" />
        </mxCell>
        <mxCell id="a9Sl7O8uez9xCAdCzFx1-52" value="Пациент" style="html=1;fontSize=11;" vertex="1" parent="1">
          <mxGeometry x="920" y="100" width="110" height="50" as="geometry" />
        </mxCell>
        <mxCell id="i68uGo4dV-2NrsItY42l-1" style="edgeStyle=orthogonalEdgeStyle;rounded=0;orthogonalLoop=1;jettySize=auto;html=1;exitX=0.75;exitY=1;exitDx=0;exitDy=0;entryX=0.25;entryY=0;entryDx=0;entryDy=0;" edge="1" parent="1" source="a9Sl7O8uez9xCAdCzFx1-53" target="jfRJq12P8PdNFq7zpwv4-1">
          <mxGeometry relative="1" as="geometry" />
        </mxCell>
        <mxCell id="a9Sl7O8uez9xCAdCzFx1-53" value="Врач" style="html=1;fontSize=11;" vertex="1" parent="1">
          <mxGeometry x="240" y="110" width="130" height="40" as="geometry" />
        </mxCell>
        <mxCell id="a9Sl7O8uez9xCAdCzFx1-55" value="Лаборатория" style="html=1;fontSize=11;" vertex="1" parent="1">
          <mxGeometry x="1000" y="-660" width="130" height="50" as="geometry" />
        </mxCell>
        <mxCell id="TyFQIvKSNbhwDLeUT2OL-1" value="1" style="swimlane;childLayout=stackLayout;horizontal=1;startSize=30;horizontalStack=0;rounded=1;fontSize=14;fontStyle=0;strokeWidth=1;resizeParent=0;resizeLast=1;shadow=0;dashed=0;align=center;fillColor=#FFFFFF;" vertex="1" parent="1">
          <mxGeometry x="370" y="-500" width="150" height="130" as="geometry" />
        </mxCell>
        <mxCell id="TyFQIvKSNbhwDLeUT2OL-2" value="Пройти обследование" style="align=center;strokeColor=none;fillColor=none;spacingLeft=4;fontSize=12;verticalAlign=middle;resizable=0;rotatable=0;part=1;" vertex="1" parent="TyFQIvKSNbhwDLeUT2OL-1">
          <mxGeometry y="30" width="150" height="100" as="geometry" />
        </mxCell>
        <mxCell id="jfRJq12P8PdNFq7zpwv4-1" value="2" style="swimlane;childLayout=stackLayout;horizontal=1;startSize=30;horizontalStack=0;rounded=1;fontSize=14;fontStyle=0;strokeWidth=1;resizeParent=0;resizeLast=1;shadow=0;dashed=0;align=center;fillColor=#FFFFFF;" vertex="1" parent="1">
          <mxGeometry x="540" y="300" width="140" height="160" as="geometry" />
        </mxCell>
        <mxCell id="jfRJq12P8PdNFq7zpwv4-2" value="Пройти&#xa;медикаментозное &#xa;лечение" style="align=center;strokeColor=none;fillColor=none;spacingLeft=4;fontSize=12;verticalAlign=middle;resizable=0;rotatable=0;part=1;" vertex="1" parent="jfRJq12P8PdNFq7zpwv4-1">
          <mxGeometry y="30" width="140" height="130" as="geometry" />
        </mxCell>
        <mxCell id="S7mUJnaMho0lZ5WQz1Ak-1" value="D2.&amp;nbsp; &amp;nbsp; результаты анализов" style="html=1;dashed=0;whiteSpace=wrap;shape=mxgraph.dfd.dataStoreID;align=left;spacingLeft=3;points=[[0,0],[0.5,0],[1,0],[0,0.5],[1,0.5],[0,1],[0.5,1],[1,1]];" vertex="1" parent="1">
          <mxGeometry x="960" y="-780" width="180" height="30" as="geometry" />
        </mxCell>
        <mxCell id="S7mUJnaMho0lZ5WQz1Ak-2" value="D3&amp;nbsp; &amp;nbsp; &amp;nbsp;расписание процедурных кабинетов" style="html=1;dashed=0;whiteSpace=wrap;shape=mxgraph.dfd.dataStoreID;align=left;spacingLeft=3;points=[[0,0],[0.5,0],[1,0],[0,0.5],[1,0.5],[0,1],[0.5,1],[1,1]];" vertex="1" parent="1">
          <mxGeometry x="960" y="-480" width="260" height="30" as="geometry" />
        </mxCell>
        <mxCell id="S7mUJnaMho0lZ5WQz1Ak-3" value="D1&amp;nbsp; &amp;nbsp; &amp;nbsp; мед. карта" style="html=1;dashed=0;whiteSpace=wrap;shape=mxgraph.dfd.dataStoreID;align=left;spacingLeft=3;points=[[0,0],[0.5,0],[1,0],[0,0.5],[1,0.5],[0,1],[0.5,1],[1,1]];" vertex="1" parent="1">
          <mxGeometry x="30" y="-210" width="180" height="30" as="geometry" />
        </mxCell>
        <mxCell id="S7mUJnaMho0lZ5WQz1Ak-85" value="D1&amp;nbsp; &amp;nbsp; &amp;nbsp; мед. карта" style="html=1;dashed=0;whiteSpace=wrap;shape=mxgraph.dfd.dataStoreID;align=left;spacingLeft=3;points=[[0,0],[0.5,0],[1,0],[0,0.5],[1,0.5],[0,1],[0.5,1],[1,1]];" vertex="1" parent="1">
          <mxGeometry x="930" y="330" width="180" height="30" as="geometry" />
        </mxCell>
        <mxCell id="i68uGo4dV-2NrsItY42l-2" value="&lt;span style=&quot;font-family: &amp;quot;YS Text&amp;quot;, sans-serif; font-size: 18px; text-align: left; white-space: pre-line;&quot;&gt;&lt;font style=&quot;color: rgb(27, 27, 27);&quot;&gt;Назначение&lt;/font&gt;&lt;/span&gt;&lt;div&gt;&lt;span style=&quot;font-family: &amp;quot;YS Text&amp;quot;, sans-serif; font-size: 18px; text-align: left; white-space: pre-line;&quot;&gt;&lt;font style=&quot;color: rgb(27, 27, 27);&quot;&gt;&amp;nbsp;на медикаментозное лечение&lt;/font&gt;&lt;/span&gt;&lt;/div&gt;" style="text;html=1;align=center;verticalAlign=middle;resizable=0;points=[];autosize=1;strokeColor=none;fillColor=none;" vertex="1" parent="1">
          <mxGeometry x="320" y="140" width="280" height="60" as="geometry" />
        </mxCell>
        <mxCell id="i68uGo4dV-2NrsItY42l-3" style="edgeStyle=orthogonalEdgeStyle;rounded=0;orthogonalLoop=1;jettySize=auto;html=1;exitX=1;exitY=0.25;exitDx=0;exitDy=0;entryX=0;entryY=0.25;entryDx=0;entryDy=0;" edge="1" parent="1" source="jfRJq12P8PdNFq7zpwv4-2" target="a9Sl7O8uez9xCAdCzFx1-52">
          <mxGeometry relative="1" as="geometry" />
        </mxCell>
        <mxCell id="i68uGo4dV-2NrsItY42l-4" value="&lt;span style=&quot;font-family: &amp;quot;YS Text&amp;quot;, sans-serif; font-size: 18px; text-align: left; white-space: pre-line;&quot;&gt;&lt;font style=&quot;color: rgb(27, 27, 27);&quot;&gt;Назначение&lt;/font&gt;&lt;/span&gt;&lt;div&gt;&lt;span style=&quot;font-family: &amp;quot;YS Text&amp;quot;, sans-serif; font-size: 18px; text-align: left; white-space: pre-line;&quot;&gt;&lt;font style=&quot;color: rgb(27, 27, 27);&quot;&gt;&amp;nbsp;на медикаментозное лечение&lt;/font&gt;&lt;/span&gt;&lt;/div&gt;" style="text;html=1;align=center;verticalAlign=middle;resizable=0;points=[];autosize=1;strokeColor=none;fillColor=none;" vertex="1" parent="1">
          <mxGeometry x="580" y="160" width="280" height="60" as="geometry" />
        </mxCell>
        <mxCell id="i68uGo4dV-2NrsItY42l-6" value="записать назначение в карту поциента" style="text;html=1;align=center;verticalAlign=middle;resizable=0;points=[];autosize=1;strokeColor=none;fillColor=none;" vertex="1" parent="1">
          <mxGeometry x="720" y="390" width="250" height="30" as="geometry" />
        </mxCell>
        <mxCell id="axLoWOuuYM0gr5L4b558-1" style="edgeStyle=orthogonalEdgeStyle;rounded=0;orthogonalLoop=1;jettySize=auto;html=1;entryX=0.368;entryY=0.017;entryDx=0;entryDy=0;entryPerimeter=0;" edge="1" parent="1" source="a9Sl7O8uez9xCAdCzFx1-51" target="TyFQIvKSNbhwDLeUT2OL-1">
          <mxGeometry relative="1" as="geometry" />
        </mxCell>
        <mxCell id="axLoWOuuYM0gr5L4b558-2" value="назначение на обследование" style="text;html=1;align=center;verticalAlign=middle;resizable=0;points=[];autosize=1;strokeColor=none;fillColor=none;" vertex="1" parent="1">
          <mxGeometry x="130" y="-660" width="190" height="30" as="geometry" />
        </mxCell>
        <mxCell id="axLoWOuuYM0gr5L4b558-5" style="edgeStyle=orthogonalEdgeStyle;rounded=0;orthogonalLoop=1;jettySize=auto;html=1;entryX=0.599;entryY=0.003;entryDx=0;entryDy=0;entryPerimeter=0;" edge="1" parent="1" source="a9Sl7O8uez9xCAdCzFx1-55" target="TyFQIvKSNbhwDLeUT2OL-1">
          <mxGeometry relative="1" as="geometry">
            <Array as="points">
              <mxPoint x="460" y="-640" />
            </Array>
          </mxGeometry>
        </mxCell>
        <mxCell id="axLoWOuuYM0gr5L4b558-6" value="статус анализов" style="text;html=1;align=center;verticalAlign=middle;resizable=0;points=[];autosize=1;strokeColor=none;fillColor=none;" vertex="1" parent="1">
          <mxGeometry x="850" y="-670" width="120" height="30" as="geometry" />
        </mxCell>
        <mxCell id="axLoWOuuYM0gr5L4b558-7" style="edgeStyle=orthogonalEdgeStyle;rounded=0;orthogonalLoop=1;jettySize=auto;html=1;exitX=0;exitY=0.75;exitDx=0;exitDy=0;entryX=0.805;entryY=0.024;entryDx=0;entryDy=0;entryPerimeter=0;" edge="1" parent="1" source="a9Sl7O8uez9xCAdCzFx1-55" target="TyFQIvKSNbhwDLeUT2OL-1">
          <mxGeometry relative="1" as="geometry">
            <Array as="points">
              <mxPoint x="490" y="-622" />
              <mxPoint x="490" y="-610" />
            </Array>
          </mxGeometry>
        </mxCell>
        <mxCell id="axLoWOuuYM0gr5L4b558-8" value="результаты анализов" style="text;html=1;align=center;verticalAlign=middle;resizable=0;points=[];autosize=1;strokeColor=none;fillColor=none;" vertex="1" parent="1">
          <mxGeometry x="840" y="-620" width="150" height="30" as="geometry" />
        </mxCell>
        <mxCell id="axLoWOuuYM0gr5L4b558-11" value="расписание процедурного кабинета" style="text;html=1;align=center;verticalAlign=middle;resizable=0;points=[];autosize=1;strokeColor=none;fillColor=none;" vertex="1" parent="1">
          <mxGeometry x="630" y="-452" width="230" height="30" as="geometry" />
        </mxCell>
        <mxCell id="axLoWOuuYM0gr5L4b558-12" style="edgeStyle=orthogonalEdgeStyle;rounded=0;orthogonalLoop=1;jettySize=auto;html=1;entryX=0.847;entryY=0.032;entryDx=0;entryDy=0;entryPerimeter=0;exitX=1;exitY=0.75;exitDx=0;exitDy=0;" edge="1" parent="1" source="TyFQIvKSNbhwDLeUT2OL-2" target="a9Sl7O8uez9xCAdCzFx1-50">
          <mxGeometry relative="1" as="geometry">
            <Array as="points">
              <mxPoint x="520" y="-400" />
              <mxPoint x="580" y="-400" />
              <mxPoint x="580" y="-149" />
            </Array>
          </mxGeometry>
        </mxCell>
        <mxCell id="axLoWOuuYM0gr5L4b558-13" value="расписание процедурного кабинета" style="text;html=1;align=center;verticalAlign=middle;resizable=0;points=[];autosize=1;strokeColor=none;fillColor=none;rotation=-90;" vertex="1" parent="1">
          <mxGeometry x="450" y="-290" width="230" height="30" as="geometry" />
        </mxCell>
        <mxCell id="axLoWOuuYM0gr5L4b558-15" style="edgeStyle=orthogonalEdgeStyle;rounded=0;orthogonalLoop=1;jettySize=auto;html=1;exitX=1;exitY=1;exitDx=0;exitDy=0;entryX=0.666;entryY=0.055;entryDx=0;entryDy=0;entryPerimeter=0;" edge="1" parent="1" source="TyFQIvKSNbhwDLeUT2OL-2" target="a9Sl7O8uez9xCAdCzFx1-50">
          <mxGeometry relative="1" as="geometry" />
        </mxCell>
        <mxCell id="axLoWOuuYM0gr5L4b558-16" value="результаты анализов" style="text;html=1;align=center;verticalAlign=middle;resizable=0;points=[];autosize=1;strokeColor=none;fillColor=none;rotation=-90;" vertex="1" parent="1">
          <mxGeometry x="430" y="-270" width="150" height="30" as="geometry" />
        </mxCell>
        <mxCell id="axLoWOuuYM0gr5L4b558-17" style="edgeStyle=orthogonalEdgeStyle;rounded=0;orthogonalLoop=1;jettySize=auto;html=1;exitX=0.75;exitY=1;exitDx=0;exitDy=0;entryX=0.553;entryY=0;entryDx=0;entryDy=0;entryPerimeter=0;" edge="1" parent="1" source="TyFQIvKSNbhwDLeUT2OL-2" target="a9Sl7O8uez9xCAdCzFx1-50">
          <mxGeometry relative="1" as="geometry" />
        </mxCell>
        <mxCell id="axLoWOuuYM0gr5L4b558-18" value="статус анализов" style="text;html=1;align=center;verticalAlign=middle;resizable=0;points=[];autosize=1;strokeColor=none;fillColor=none;rotation=-90;" vertex="1" parent="1">
          <mxGeometry x="400" y="-272" width="120" height="30" as="geometry" />
        </mxCell>
        <mxCell id="axLoWOuuYM0gr5L4b558-19" style="edgeStyle=orthogonalEdgeStyle;rounded=0;orthogonalLoop=1;jettySize=auto;html=1;exitX=0.5;exitY=1;exitDx=0;exitDy=0;entryX=0.437;entryY=0.055;entryDx=0;entryDy=0;entryPerimeter=0;" edge="1" parent="1" source="TyFQIvKSNbhwDLeUT2OL-2" target="a9Sl7O8uez9xCAdCzFx1-50">
          <mxGeometry relative="1" as="geometry" />
        </mxCell>
        <mxCell id="axLoWOuuYM0gr5L4b558-20" value="назначение на обследование" style="text;html=1;align=center;verticalAlign=middle;resizable=0;points=[];autosize=1;strokeColor=none;fillColor=none;rotation=-90;" vertex="1" parent="1">
          <mxGeometry x="330" y="-270" width="190" height="30" as="geometry" />
        </mxCell>
        <mxCell id="axLoWOuuYM0gr5L4b558-21" style="edgeStyle=orthogonalEdgeStyle;rounded=0;orthogonalLoop=1;jettySize=auto;html=1;exitX=0.25;exitY=1;exitDx=0;exitDy=0;entryX=0.316;entryY=0.032;entryDx=0;entryDy=0;entryPerimeter=0;" edge="1" parent="1" source="TyFQIvKSNbhwDLeUT2OL-2" target="a9Sl7O8uez9xCAdCzFx1-50">
          <mxGeometry relative="1" as="geometry" />
        </mxCell>
        <mxCell id="axLoWOuuYM0gr5L4b558-22" value="назначение на медикаментозное лечение" style="text;html=1;align=center;verticalAlign=middle;resizable=0;points=[];autosize=1;strokeColor=none;fillColor=none;rotation=-90;" vertex="1" parent="1">
          <mxGeometry x="250" y="-250" width="260" height="30" as="geometry" />
        </mxCell>
        <mxCell id="axLoWOuuYM0gr5L4b558-24" value="результаты анализов" style="text;html=1;align=center;verticalAlign=middle;resizable=0;points=[];autosize=1;strokeColor=none;fillColor=none;" vertex="1" parent="1">
          <mxGeometry x="570" y="-710" width="150" height="30" as="geometry" />
        </mxCell>
        <mxCell id="axLoWOuuYM0gr5L4b558-27" style="edgeStyle=orthogonalEdgeStyle;rounded=0;orthogonalLoop=1;jettySize=auto;html=1;exitX=0;exitY=0.5;exitDx=0;exitDy=0;entryX=0.305;entryY=-0.041;entryDx=0;entryDy=0;entryPerimeter=0;" edge="1" parent="1" source="TyFQIvKSNbhwDLeUT2OL-2" target="S7mUJnaMho0lZ5WQz1Ak-3">
          <mxGeometry relative="1" as="geometry" />
        </mxCell>
        <mxCell id="axLoWOuuYM0gr5L4b558-28" value="запись данных&lt;br&gt;(назначения,&amp;nbsp;&lt;div&gt;статусы анализов,&amp;nbsp;&lt;/div&gt;&lt;div&gt;результаты анализов,&lt;/div&gt;&lt;div&gt;&amp;nbsp;записи в кабинеты)&lt;/div&gt;" style="text;html=1;align=center;verticalAlign=middle;resizable=0;points=[];autosize=1;strokeColor=none;fillColor=none;" vertex="1" parent="1">
          <mxGeometry x="130" y="-512" width="150" height="90" as="geometry" />
        </mxCell>
        <mxCell id="axLoWOuuYM0gr5L4b558-31" style="edgeStyle=orthogonalEdgeStyle;rounded=0;orthogonalLoop=1;jettySize=auto;html=1;exitX=0.5;exitY=0;exitDx=0;exitDy=0;entryX=0.321;entryY=1.116;entryDx=0;entryDy=0;entryPerimeter=0;" edge="1" parent="1" source="TyFQIvKSNbhwDLeUT2OL-1" target="S7mUJnaMho0lZ5WQz1Ak-1">
          <mxGeometry relative="1" as="geometry">
            <Array as="points">
              <mxPoint x="445" y="-680" />
              <mxPoint x="1018" y="-680" />
            </Array>
          </mxGeometry>
        </mxCell>
        <mxCell id="axLoWOuuYM0gr5L4b558-32" style="edgeStyle=orthogonalEdgeStyle;rounded=0;orthogonalLoop=1;jettySize=auto;html=1;exitX=1;exitY=0.5;exitDx=0;exitDy=0;entryX=0.5;entryY=1;entryDx=0;entryDy=0;" edge="1" parent="1" source="TyFQIvKSNbhwDLeUT2OL-2" target="S7mUJnaMho0lZ5WQz1Ak-2">
          <mxGeometry relative="1" as="geometry">
            <mxPoint x="1050" y="-440" as="targetPoint" />
          </mxGeometry>
        </mxCell>
        <mxCell id="axLoWOuuYM0gr5L4b558-33" style="edgeStyle=orthogonalEdgeStyle;rounded=0;orthogonalLoop=1;jettySize=auto;html=1;exitX=1;exitY=0.75;exitDx=0;exitDy=0;entryX=0.606;entryY=1;entryDx=0;entryDy=0;entryPerimeter=0;" edge="1" parent="1" source="jfRJq12P8PdNFq7zpwv4-2" target="S7mUJnaMho0lZ5WQz1Ak-85">
          <mxGeometry relative="1" as="geometry" />
        </mxCell>
      </root>
    </mxGraphModel>
  </diagram>
</mxfile>
